<svg xmlns="http://www.w3.org/2000/svg" width="454" height="185" viewBox="0 0 454 185">
    <g fill="none" fill-rule="evenodd">
        <g  transform="translate(-493 -272)">
            <g filter="" transform="translate(493 272)">
                <path fill="#fff" fill-rule="nonzero" d="M107.399 51.176l1.05-.007c9.619-.072 17.474 7.668 17.546 17.288.01 1.362-.14 2.72-.446 4.048l-8.712 37.756.565 12.205c.44 9.484-6.788 17.547-16.212 18.186l-.378.021c-.225.01-.45.017-.676.019l-45.17.338c-9.618.071-17.473-7.67-17.545-17.289-.013-1.816.257-3.624.802-5.356l4.465-14.201 1.105-35.78c.285-9.228 7.711-16.606 16.894-16.874l.383-.007 4.73-.034c3.184-9.674 11.005-16.925 20.89-18.232 12.224-1.617 19.824 5.613 20.709 17.919zm121.446 27.34c7.302 0 12.971.962 16.91 2.98 2.787 1.442 3.076 2.21 2.595 5.286l-6.822 38.441c-.384 2.21-1.153 2.98-3.555 3.652-6.342 1.538-12.78 2.307-19.41 2.307-13.355 0-19.312-8.169-17.006-20.759l2.402-13.07c2.21-13.07 9.993-18.836 24.886-18.836zm121.547-19.893c2.21 0 2.786.77 2.402 2.98l-10.761 61.218c-.48 3.075-1.346 4.036-4.708 5.285-5.862 2.019-12.107 3.076-18.545 3.076-13.836 0-19.505-7.785-17.199-20.47l2.306-13.167c2.21-12.685 9.993-19.028 23.349-19.028 3.074 0 6.822.384 11.145 1.25l3.267-18.164c.289-2.019 1.442-2.98 3.46-2.98zm48.138 19.894c7.303 0 12.972.96 16.911 2.98 2.787 1.44 3.075 2.21 2.595 5.285l-6.822 38.441c-.385 2.21-1.153 2.98-3.556 3.652-6.341 1.538-12.779 2.307-19.409 2.307-13.355 0-19.313-8.169-17.007-20.759l2.403-13.07c2.21-13.07 9.992-18.836 24.885-18.836zm-290-16.537l-47.38.355c-3.549.026-6.443 2.854-6.552 6.403l-1.15 37.266-4.914 15.624c-.206.658-.309 1.343-.304 2.032.028 3.65 3.007 6.585 6.655 6.558l45.17-.338.256-.007c3.645-.169 6.462-3.26 6.293-6.906l-.634-13.687 9.046-39.207c.117-.503.173-1.018.17-1.535-.028-3.649-3.007-6.585-6.656-6.558zm51.23-.474c2.402 0 3.17.865 2.69 3.268l-4.323 24.795h28.44l4.324-24.795c.48-2.403 1.442-3.268 3.844-3.268h5.477c2.594 0 3.267.865 2.786 3.268l-10.953 61.699c-.385 2.402-1.442 3.267-3.844 3.267h-5.477c-2.402 0-3.074-.865-2.69-3.267l4.516-25.66h-28.537l-4.42 25.66c-.48 2.402-1.441 3.267-3.844 3.267h-5.572c-2.403 0-3.075-.865-2.69-3.267l10.857-61.699c.48-2.403 1.441-3.268 3.843-3.268zm119.337 17.01c13.356 0 18.737 7.497 16.527 20.183l-4.9 28.062c-.481 2.21-1.346 2.98-3.556 2.98h-5.284c-2.21 0-2.787-.77-2.306-2.98l4.996-28.639c1.153-6.247-1.73-9.418-8.744-9.418-3.17 0-6.341.384-9.512 1.25-.288.095-.577.48-.865.96l-6.245 35.847c-.289 2.018-1.442 2.98-3.46 2.98h-5.284c-2.21 0-2.786-.77-2.402-2.98l6.918-39.499c.673-3.075 1.537-4.228 4.708-5.478 5.861-2.21 12.299-3.267 19.41-3.267zm89.84-19.893c2.21 0 2.786.77 2.401 2.98l-11.434 65.158c-.48 2.21-1.345 2.98-3.555 2.98h-5.188c-2.306 0-2.883-.77-2.402-2.98l11.434-65.158c.384-2.21 1.249-2.98 3.555-2.98zm-141.053 30.08c-7.783 0-11.914 2.884-13.164 10.092l-2.21 12.493c-1.056 6.44 1.826 9.707 8.744 9.707 3.171 0 6.534-.385 10.09-1.25l5.092-28.735c.192-.576-.096-.96-.77-1.249-2.305-.673-4.9-1.057-7.782-1.057zm99.736 0c-7.687 0-11.626 2.98-12.875 10.188l-2.21 12.493c-1.153 6.44 1.825 9.61 9.032 9.61 3.363 0 6.437-.384 9.128-1.056.384-.193.672-.577.864-1.057l5.093-28.928c-3.651-.865-6.63-1.25-9.032-1.25zm69.95 0c-7.783 0-11.915 2.884-13.164 10.092l-2.21 12.493c-1.057 6.44 1.826 9.707 8.744 9.707 3.17 0 6.534-.385 10.089-1.25l5.092-28.735c.192-.576-.096-.96-.769-1.249-2.306-.673-4.9-1.057-7.782-1.057zM88.107 43.976c-4.373.578-8.15 3.36-10.498 7.424l19.007-.142c-.484-5.852-3.274-7.974-8.509-7.282z"/>
            </g>
        </g>
    </g>
</svg>
