<?xml version="1.0" encoding="UTF-8"?>
<svg width="443px" height="185px" viewBox="0 0 443 185" version="1.1" xmlns="http://www.w3.org/2000/svg" xmlns:xlink="http://www.w3.org/1999/xlink">
    <title>Artboard</title>
    <g id="Artboard" stroke="none" stroke-width="1" fill="none" fill-rule="evenodd">
        <g id="Group" fill="#000000" fill-rule="nonzero">
            <g id="Handla-logo">
                <path d="M104.796623,51.1758714 L105.822076,51.1685645 C115.207002,51.0971737 122.87184,58.837356 122.942447,68.4572422 C122.951901,69.8191483 122.805971,71.1775488 122.507174,72.5046077 L122.507174,72.5046077 L114.005698,110.261201 L114.557501,122.46636 C114.986499,131.949744 107.933992,140.01296 98.7384326,140.651749 L98.7384326,140.651749 L98.36948,140.673327 C98.1495689,140.68378 97.9294804,140.689851 97.7093391,140.691537 L97.7093391,140.691537 L53.6343268,141.029643 C44.2494008,141.101034 36.5845621,133.360852 36.5139559,123.740965 C36.501189,121.924651 36.7651768,120.117389 37.2968232,118.384702 L37.2968232,118.384702 L41.6537196,104.183831 L42.7321664,68.4041665 C43.0100229,59.1763298 50.2562731,51.7977409 59.2161729,51.5302079 L59.2161729,51.5302079 L59.5904797,51.52319 L64.2061144,51.4888515 C67.3129951,41.8149351 74.9437259,34.5642039 84.5894282,33.2566785 C96.5171959,31.6398073 103.933444,38.8698596 104.796623,51.1758714 Z M223.300237,78.5168831 C230.42574,78.5168831 235.95738,79.4779221 239.801401,81.4961039 C242.520343,82.9376623 242.801613,83.7064935 242.332829,86.7818182 L242.332829,86.7818182 L235.67611,125.223377 C235.301083,127.433766 234.551031,128.202597 232.207115,128.875325 C226.019179,130.412987 219.737486,131.181818 213.268279,131.181818 C200.23611,131.181818 194.4232,123.012987 196.673359,110.423377 L196.673359,110.423377 L199.017274,97.3532468 C201.173676,84.2831169 208.767962,78.5168831 223.300237,78.5168831 Z M341.902353,58.6233766 C344.058755,58.6233766 344.621295,59.3922078 344.246269,61.6025974 L344.246269,61.6025974 L333.745528,122.820779 C333.276745,125.896104 332.432935,126.857143 329.151454,128.106494 C323.4323,130.124675 317.33812,131.181818 311.056427,131.181818 C297.555475,131.181818 292.023835,123.397403 294.273993,110.711688 L294.273993,110.711688 L296.524152,97.5454545 C298.680554,84.8597403 306.27484,78.5168831 319.307009,78.5168831 C322.307221,78.5168831 325.963729,78.9012987 330.182777,79.7662338 L330.182777,79.7662338 L333.370501,61.6025974 C333.651771,59.5844156 334.776851,58.6233766 336.74574,58.6233766 L336.74574,58.6233766 Z M388.874417,78.5168831 C395.999919,78.5168831 401.53156,79.4779221 405.375581,81.4961039 C408.094523,82.9376623 408.375792,83.7064935 407.907009,86.7818182 L407.907009,86.7818182 L401.25029,125.223377 C400.875263,127.433766 400.12521,128.202597 397.781295,128.875325 C391.593359,130.412987 385.311665,131.181818 378.842459,131.181818 C365.81029,131.181818 359.99738,123.012987 362.247538,110.423377 L362.247538,110.423377 L364.591454,97.3532468 C366.747856,84.2831169 374.342142,78.5168831 388.874417,78.5168831 Z M105.900894,61.9800734 L59.6692977,62.3345764 C56.2055959,62.361108 53.3816227,65.1888774 53.2747651,68.7377054 L53.2747651,68.7377054 L52.1526524,106.003957 L47.3585246,121.628488 C47.1568657,122.285714 47.0567324,122.971227 47.0614074,123.660174 C47.0883566,127.309096 49.9957092,130.245028 53.5555088,130.218134 L53.5555088,130.218134 L97.6305211,129.88015 L97.8809193,129.873243 C101.436997,129.704222 104.186096,126.61226 104.021203,122.967152 L104.021203,122.967152 L103.402037,109.279914 L112.229724,70.0732411 C112.343061,69.5698739 112.398414,69.0546186 112.394991,68.5380335 C112.368046,64.8891112 109.460693,61.95318 105.900894,61.9800734 L105.900894,61.9800734 Z M155.889232,61.5064935 C158.233147,61.5064935 158.9832,62.3714286 158.514417,64.774026 L158.514417,64.774026 L154.295369,89.5688312 L182.047327,89.5688312 L186.266374,64.774026 C186.735157,62.3714286 187.672724,61.5064935 190.016639,61.5064935 L190.016639,61.5064935 L195.360766,61.5064935 C197.892195,61.5064935 198.548491,62.3714286 198.079708,64.774026 L198.079708,64.774026 L187.391454,126.472727 C187.016427,128.875325 185.985105,129.74026 183.641189,129.74026 L183.641189,129.74026 L178.297062,129.74026 C175.953147,129.74026 175.296851,128.875325 175.671877,126.472727 L175.671877,126.472727 L180.078438,100.812987 L152.232724,100.812987 L147.919919,126.472727 C147.451136,128.875325 146.51357,129.74026 144.169655,129.74026 L144.169655,129.74026 L138.731771,129.74026 C136.387856,129.74026 135.73156,128.875325 136.106586,126.472727 L136.106586,126.472727 L146.701083,64.774026 C147.169866,62.3714286 148.107433,61.5064935 150.451348,61.5064935 L150.451348,61.5064935 Z M272.334946,78.5168831 C285.367115,78.5168831 290.617486,86.012987 288.461083,98.6987013 L288.461083,98.6987013 L283.679496,126.761039 C283.210713,128.971429 282.366904,129.74026 280.210501,129.74026 L280.210501,129.74026 L275.053888,129.74026 C272.897486,129.74026 272.334946,128.971429 272.803729,126.761039 L272.803729,126.761039 L277.679073,98.1220779 C278.804152,91.8753247 275.991454,88.7038961 269.147221,88.7038961 C266.053253,88.7038961 262.959284,89.0883117 259.865316,89.9532468 C259.584046,90.0493506 259.302777,90.4337662 259.021507,90.9142857 L259.021507,90.9142857 L252.927327,126.761039 C252.646057,128.779221 251.520978,129.74026 249.552089,129.74026 L249.552089,129.74026 L244.395475,129.74026 C242.239073,129.74026 241.676533,128.971429 242.05156,126.761039 L242.05156,126.761039 L248.802036,87.2623377 C249.458332,84.187013 250.302142,83.0337662 253.39611,81.7844156 C259.115263,79.574026 265.396956,78.5168831 272.334946,78.5168831 Z M359.99738,58.6233766 C362.153782,58.6233766 362.716322,59.3922078 362.341295,61.6025974 L362.341295,61.6025974 L351.184258,126.761039 C350.715475,128.971429 349.871665,129.74026 347.715263,129.74026 L347.715263,129.74026 L342.652406,129.74026 C340.402247,129.74026 339.839708,128.971429 340.308491,126.761039 L340.308491,126.761039 L351.465528,61.6025974 C351.840554,59.3922078 352.684364,58.6233766 354.934523,58.6233766 L354.934523,58.6233766 Z M222.362671,88.7038961 C214.768385,88.7038961 210.736851,91.587013 209.518015,98.7948052 L209.518015,98.7948052 L207.361613,111.288312 C206.33029,117.727273 209.142988,120.994805 215.893464,120.994805 C218.987433,120.994805 222.268914,120.61039 225.737909,119.745455 L225.737909,119.745455 L230.707009,91.0103896 C230.894523,90.4337662 230.613253,90.0493506 229.956956,89.761039 C227.706798,89.0883117 225.175369,88.7038961 222.362671,88.7038961 Z M319.682036,88.7038961 C312.181507,88.7038961 308.337486,91.6831169 307.11865,98.8909091 L307.11865,98.8909091 L304.962247,111.384416 C303.837168,117.823377 306.743623,120.994805 313.775369,120.994805 C317.056851,120.994805 320.057062,120.61039 322.682247,119.937662 C323.057274,119.745455 323.338544,119.361039 323.526057,118.880519 L323.526057,118.880519 L328.495157,89.9532468 C324.932406,89.0883117 322.025951,88.7038961 319.682036,88.7038961 Z M387.936851,88.7038961 C380.342565,88.7038961 376.311031,91.587013 375.092195,98.7948052 L375.092195,98.7948052 L372.935792,111.288312 C371.90447,117.727273 374.717168,120.994805 381.467644,120.994805 C384.561613,120.994805 387.843094,120.61039 391.312089,119.745455 L391.312089,119.745455 L396.281189,91.0103896 C396.468702,90.4337662 396.187433,90.0493506 395.531136,89.761039 C393.280978,89.0883117 390.749549,88.7038961 387.936851,88.7038961 Z M85.972252,43.9750486 C81.7052358,44.5534649 78.0197197,47.3341393 75.7282426,51.3989451 L94.2750694,51.2568403 C93.8028228,45.4052833 91.0800254,43.2826632 85.972252,43.9750486 Z" id="Combined-Shape"></path>
            </g>
        </g>
    </g>
</svg>