<?xml version="1.0" encoding="UTF-8"?>
<svg width="443px" height="185px" viewBox="0 0 443 185" version="1.1" xmlns="http://www.w3.org/2000/svg" xmlns:xlink="http://www.w3.org/1999/xlink">
    <title>handla-logo</title>
    <g id="handla-logo" stroke="none" stroke-width="1" fill="none" fill-rule="evenodd">
        <g id="Group" fill="#000000" fill-rule="nonzero">
            <g id="Group" transform="translate(36.329899, 33.035714)">
                <path d="M107.656929,96.7081717 C110.000845,96.7081717 110.938411,95.8432367 111.407194,93.4406393 L115.719998,67.780899 L143.565712,67.780899 L139.159151,93.4406393 C138.784125,95.8432367 139.440421,96.7081717 141.784337,96.7081717 L147.128464,96.7081717 C149.472379,96.7081717 150.503702,95.8432367 150.878728,93.4406393 L161.566982,31.741938 C162.035765,29.3393406 161.379469,28.4744055 158.84804,28.4744055 L153.503913,28.4744055 C151.159998,28.4744055 150.222432,29.3393406 149.753649,31.741938 L145.534601,56.5367432 L117.782643,56.5367432 L122.001691,31.741938 C122.470474,29.3393406 121.720421,28.4744055 119.376506,28.4744055 L113.938622,28.4744055 C111.594707,28.4744055 110.657141,29.3393406 110.188358,31.741938 L99.5938604,93.4406393 C99.2188339,95.8432367 99.8751302,96.7081717 102.219046,96.7081717 L107.656929,96.7081717 Z M176.755554,98.1497302 C183.22476,98.1497302 189.506453,97.380899 195.694389,95.8432367 C198.038305,95.1705094 198.788358,94.4016782 199.163384,92.1912886 L205.820104,53.7497302 C206.288887,50.6744055 206.007617,49.9055743 203.288675,48.4640159 C199.444654,46.4458341 193.913014,45.4847951 186.787511,45.4847951 C172.255236,45.4847951 164.66095,51.2510289 162.504548,64.3211588 L160.160633,77.3912886 C157.910474,89.980899 163.723384,98.1497302 176.755554,98.1497302 Z M179.380739,87.9627172 C172.630262,87.9627172 169.817564,84.6951847 170.848887,78.2562237 L173.005289,65.7627172 C174.224125,58.554925 178.255659,55.6718081 185.849945,55.6718081 C188.662643,55.6718081 191.194072,56.0562237 193.444231,56.728951 C194.100527,57.0172627 194.381797,57.4016782 194.194284,57.9783016 L189.225183,86.7133666 C185.756188,87.5783016 182.474707,87.9627172 179.380739,87.9627172 Z M213.039363,96.7081717 C215.008252,96.7081717 216.133331,95.7471328 216.414601,93.728951 L222.508781,57.8821977 C222.790051,57.4016782 223.071321,57.0172627 223.352591,56.9211588 C226.446559,56.0562237 229.540527,55.6718081 232.634495,55.6718081 C239.478728,55.6718081 242.291427,58.8432367 241.166347,65.0899899 L236.291003,93.728951 C235.82222,95.9393406 236.38476,96.7081717 238.541162,96.7081717 L243.697776,96.7081717 C245.854178,96.7081717 246.697987,95.9393406 247.16677,93.728951 L251.948358,65.6666133 C254.10476,52.980899 248.854389,45.4847951 235.82222,45.4847951 C228.884231,45.4847951 222.602538,46.541938 216.883384,48.7523276 C213.789416,50.0016782 212.945606,51.154925 212.28931,54.2302497 L205.538834,93.728951 C205.163807,95.9393406 205.726347,96.7081717 207.882749,96.7081717 L213.039363,96.7081717 Z M274.543702,98.1497302 C280.825395,98.1497302 286.919575,97.0925873 292.638728,95.0744055 C295.92021,93.8250549 296.764019,92.8640159 297.232802,89.7886912 L307.733543,28.5705094 C308.108569,26.3601198 307.54603,25.5912886 305.389628,25.5912886 L300.233014,25.5912886 C298.264125,25.5912886 297.139046,26.5523276 296.857776,28.5705094 L293.670051,46.7341458 C289.451003,45.8692107 285.794495,45.4847951 282.794284,45.4847951 C269.762114,45.4847951 262.167829,51.8276523 260.011427,64.5133666 L257.761268,77.6796003 C255.511109,90.3653146 261.042749,98.1497302 274.543702,98.1497302 Z M277.262643,87.9627172 C270.230897,87.9627172 267.324442,84.7912886 268.449522,78.3523276 L270.605924,65.8588211 C271.82476,58.6510289 275.668781,55.6718081 283.16931,55.6718081 C285.513225,55.6718081 288.41968,56.0562237 291.982432,56.9211588 L287.013331,85.8484315 C286.825818,86.328951 286.544548,86.7133666 286.169522,86.9055743 C283.544337,87.5783016 280.544125,87.9627172 277.262643,87.9627172 Z M311.202538,96.7081717 C313.35894,96.7081717 314.202749,95.9393406 314.671532,93.728951 L325.828569,28.5705094 C326.203596,26.3601198 325.641056,25.5912886 323.484654,25.5912886 L318.421797,25.5912886 C316.171638,25.5912886 315.327829,26.3601198 314.952802,28.5705094 L303.795765,93.728951 C303.326982,95.9393406 303.889522,96.7081717 306.13968,96.7081717 L311.202538,96.7081717 Z M342.329733,98.1497302 C348.79894,98.1497302 355.080633,97.380899 361.268569,95.8432367 C363.612485,95.1705094 364.362538,94.4016782 364.737564,92.1912886 L371.394284,53.7497302 C371.863067,50.6744055 371.581797,49.9055743 368.862855,48.4640159 C365.018834,46.4458341 359.487194,45.4847951 352.361691,45.4847951 C337.829416,45.4847951 330.23513,51.2510289 328.078728,64.3211588 L325.734813,77.3912886 C323.484654,89.980899 329.297564,98.1497302 342.329733,98.1497302 Z M344.954919,87.9627172 C338.204442,87.9627172 335.391744,84.6951847 336.423067,78.2562237 L338.579469,65.7627172 C339.798305,58.554925 343.829839,55.6718081 351.424125,55.6718081 C354.236823,55.6718081 356.768252,56.0562237 359.018411,56.728951 C359.674707,57.0172627 359.955977,57.4016782 359.768464,57.9783016 L354.799363,86.7133666 C351.330368,87.5783016 348.048887,87.9627172 344.954919,87.9627172 Z" id="Combined-Shape"></path>
                <path d="M69.2821889,18.1366859 L69.3093501,18.1364765 L69.3093501,18.1364765 C78.6942761,18.0650857 86.3591148,25.805268 86.4305406,35.4251542 C86.4378245,36.5925023 86.3317686,37.7572748 86.1131374,38.9019424 L85.9944479,39.4725197 L78.5071876,72.7252307 C77.8903552,75.4647307 77.6112575,78.2717037 77.6756972,81.0804324 L77.7017934,81.8464435 L78.0447757,89.4342722 C78.4679758,98.7895025 71.610508,106.762688 62.5973126,107.589712 L62.2257069,107.619661 L61.8567543,107.641239 L61.5267702,107.653631 L61.1966134,107.659449 L17.1216011,107.998528 C7.73667508,108.068946 0.0718363914,100.328764 0.000379524266,90.7088774 C-0.010118157,89.0943754 0.197203885,87.4870265 0.616807782,85.9328482 L0.784097478,85.3526136 L3.78548849,75.5676423 C4.61002802,72.8795235 5.10146558,70.0968305 5.24897987,67.2850627 L5.28067588,66.5175453 L6.2194407,35.3720785 C6.49338378,26.2742114 13.5408101,18.9738673 22.3258944,18.5136413 L22.7034472,18.4981199 L23.077754,18.491102 L26.9242777,18.4621781 C27.3821273,18.4587179 27.7880468,18.1669433 27.9372161,17.7340615 C27.9953901,17.5652436 28.0454796,17.4233984 28.0874846,17.3085259 C31.4135309,8.21268061 38.816565,1.47985054 48.0767025,0.224590531 C59.580235,-1.33477339 66.8874636,5.33466018 68.1670183,16.8501519 C68.1768823,16.9389248 68.1874832,17.0422513 68.1988208,17.1601315 C68.2524126,17.7171606 68.7226043,18.1410016 69.2821889,18.1366859 Z M69.3881681,28.9479854 L23.156572,29.3024884 C19.7794627,29.3283567 17.0104956,32.0171518 16.7751159,35.4408398 L16.7620394,35.7056174 L15.7794209,68.3391583 C15.6945753,71.1569467 15.2645104,73.9515995 14.5000639,76.657529 L14.2832962,77.3932608 L10.845799,88.5963998 C10.64414,89.2536261 10.5440067,89.9391391 10.5485253,90.6280861 C10.5749737,94.1880103 13.342875,97.0692993 16.7835067,97.1827591 L17.0427831,97.1860462 L61.1177954,96.8480624 L61.3681937,96.8411553 C64.837538,96.6762567 67.538788,93.7292606 67.5153731,90.200758 L67.5084776,89.9350643 L67.0982085,80.8656864 C66.9711465,78.0568624 67.1882286,75.2438075 67.7436516,72.4922619 L67.9035148,71.7434148 L75.7169983,37.0411531 C75.8303353,36.537786 75.885688,36.0225306 75.882415,35.5059455 C75.8559774,31.9460213 73.0880762,29.0647323 69.6474445,28.9512726 L69.3881681,28.9479854 Z M49.8089895,10.211039 C45.1211588,10.211039 41.7755567,13.6589921 39.4937109,17.5682583 C39.4937109,17.5682583 39.4937109,17.5682583 39.4937109,17.5682583 C39.3469629,17.8196674 39.4318075,18.1424374 39.6832166,18.2891854 C39.7650432,18.3369477 39.858231,18.3617712 39.9529747,18.3610909 L56.8957838,18.2309989 C57.2934098,18.2279329 57.6132745,17.9031182 57.6102214,17.505492 C57.6098715,17.459924 57.6051963,17.4144922 57.5962587,17.3698079 C57.5899704,17.3383687 57.5839384,17.3089831 57.5781627,17.2816511 C56.6497953,12.8883388 55.082799,10.211039 49.8089895,10.211039 Z" id="Shape"></path>
            </g>
        </g>
    </g>
</svg>