<?xml version="1.0" encoding="UTF-8"?>
<svg width="112px" height="112px" viewBox="0 0 112 112" version="1.1" xmlns="http://www.w3.org/2000/svg" xmlns:xlink="http://www.w3.org/1999/xlink">
    <title>qrcode</title>
    <g id="Page-1" stroke="none" stroke-width="1" fill="none" fill-rule="evenodd">
        <g id="Handla-Website" transform="translate(-415.000000, -752.000000)">
            <g id="qrcode" transform="translate(415.000000, 752.000000)">
                <path d="M31.4075937,-1.26890438e-15 L80.5924063,1.26890438e-15 C91.5135109,-7.37269985e-16 95.4737673,1.13711374 99.4663599,3.27237562 C103.458952,5.40763751 106.592362,8.54104754 108.727624,12.5336401 C110.862886,16.5262327 112,20.4864891 112,31.4075937 L112,80.5924063 C112,91.5135109 110.862886,95.4737673 108.727624,99.4663599 C106.592362,103.458952 103.458952,106.592362 99.4663599,108.727624 C95.4737673,110.862886 91.5135109,112 80.5924063,112 L31.4075937,112 C20.4864891,112 16.5262327,110.862886 12.5336401,108.727624 C8.54104754,106.592362 5.40763751,103.458952 3.27237562,99.4663599 C1.13711374,95.4737673 4.91513323e-16,91.5135109 -8.45936251e-16,80.5924063 L8.45936251e-16,31.4075937 C-4.91513323e-16,20.4864891 1.13711374,16.5262327 3.27237562,12.5336401 C5.40763751,8.54104754 8.54104754,5.40763751 12.5336401,3.27237562 C16.5262327,1.13711374 20.4864891,7.37269985e-16 31.4075937,-1.26890438e-15 Z" id="Rectangle" fill-opacity="0.1" fill="#000000"></path>
                <path d="M31.2666224,0.5 L80.7333776,0.5 C91.4316025,0.5 95.3110373,1.61390733 99.2221484,3.70559245 C103.13326,5.79727756 106.202722,8.86674045 108.294408,12.7778516 C110.386093,16.6889627 111.5,20.5683975 111.5,31.2666224 L111.5,80.7333776 C111.5,91.4316025 110.386093,95.3110373 108.294408,99.2221484 C106.202722,103.13326 103.13326,106.202722 99.2221484,108.294408 C95.3110373,110.386093 91.4316025,111.5 80.7333776,111.5 L31.2666224,111.5 C20.5683975,111.5 16.6889627,110.386093 12.7778516,108.294408 C8.86674045,106.202722 5.79727756,103.13326 3.70559245,99.2221484 C1.61390733,95.3110373 0.5,91.4316025 0.5,80.7333776 L0.5,31.2666224 C0.5,20.5683975 1.61390733,16.6889627 3.70559245,12.7778516 C5.79727756,8.86674045 8.86674045,5.79727756 12.7778516,3.70559245 C16.6889627,1.61390733 20.5683975,0.5 31.2666224,0.5 Z" id="Rectangle" fill="#FFFFFF"></path>
                <path d="M74.4999867,82.4999724 L74.4999867,86.4999709 L72.4999883,86.4999693 L72.4999883,88.4999693 L68.4999898,88.4999693 L68.4999898,86.4999693 L70.4999883,86.4999709 L70.4999883,82.4999724 L74.4999867,82.4999724 Z M86.4999773,86.4999693 L86.4999773,88.4999693 L84.4999773,88.4999693 L84.4999773,86.4999693 L86.4999773,86.4999693 Z M80.499982,86.4999693 L80.499982,88.4999693 L78.499982,88.4999693 L78.499982,86.4999693 L80.499982,86.4999693 Z M52.5000039,74.4999787 L52.5000039,76.4999787 L54.5000023,76.4999771 L54.5000023,78.4999771 L52.5000023,78.4999771 L52.5000039,80.4999756 L54.5000023,80.499974 L54.5000023,82.499974 L50.5000039,82.499974 L50.5000039,86.4999693 L52.5000039,86.4999693 L52.5000039,88.4999693 L46.500007,88.4999693 L46.500007,86.4999693 L48.50007,86.4999693 L48.5000055,84.4999709 L46.500007,84.4999724 L46.5000086,86.4999709 L44.5000086,86.4999709 L44.5000086,84.4999709 L46.5000086,84.4999709 L46.5000086,82.499974 L44.5000086,82.499974 L44.5000086,80.499974 L40.5000117,80.4999756 L40.5000133,82.499974 L38.5000133,82.499974 L38.5000133,80.499974 L40.5000133,80.499974 L40.5000117,78.4999756 L46.5000086,78.4999756 L46.500007,80.499974 L48.5000055,80.4999756 L48.5000055,78.4999756 L50.5000039,78.4999771 L50.5000039,74.4999787 L52.5000039,74.4999787 Z M64.4999945,80.499974 L64.4999945,84.4999724 L68.4999914,84.4999709 L68.4999914,86.4999709 L66.4999914,86.4999709 L66.5000559,88.4999693 L64.499993,88.4999693 L64.499993,86.4999693 L60.4999961,86.4999709 L60.4999961,84.4999709 L62.4999945,84.4999724 L62.4999945,80.499974 L64.4999945,80.499974 Z M36.4999891,74.4999851 L36.4999891,88.4999742 L22.5,88.4999742 L22.5,74.4999851 L36.4999891,74.4999851 Z M44.5000731,86.4999693 L44.5000731,88.4999693 L38.5000133,88.4999693 L38.5000133,86.4999693 L44.5000731,86.4999693 Z M58.4999992,84.4999709 L58.4999992,86.4999709 L52.5000023,86.4999709 L52.5000023,84.4999709 L58.4999992,84.4999709 Z M34.3999907,76.5999835 L24.6000629,76.5999835 L24.6000629,86.3999113 L34.3999907,86.3999113 L34.3999907,76.5999835 Z M60.4999977,82.4999724 L60.4999977,84.4999724 L58.4999977,84.4999724 L58.4999977,82.4999724 L60.4999977,82.4999724 Z M32.5000227,78.4999756 L32.5000227,84.4999756 L26.5000227,84.4999756 L26.5000227,78.4999756 L32.5000227,78.4999756 Z M42.5000117,82.4999724 L42.5000117,84.4999724 L40.5000117,84.4999724 L40.5000117,82.4999724 L42.5000117,82.4999724 Z M74.4999867,60.4999896 L74.4999867,64.4999881 L76.4999851,64.4999865 L76.4999851,68.4999849 L78.4999836,68.4999834 L78.4999836,70.4999834 L80.499982,70.4999818 L80.4999804,72.4999803 L82.4999804,72.4999803 L82.4999804,74.4999803 L86.4999773,74.4999787 L86.4999773,78.4999771 L84.4999773,78.4999771 L84.4999773,76.4999771 L80.499982,76.4999771 L80.499982,78.4999771 L82.4999804,78.4999756 L82.4999789,80.499974 L84.4999789,80.499974 L84.4999789,82.499974 L82.4999789,82.499974 L82.4999804,84.4999724 L78.499982,84.4999724 L78.4999836,80.4999756 L76.4999851,80.499974 L76.4999851,82.499974 L74.4999851,82.499974 L74.4999867,80.4999756 L70.4999883,80.4999756 L70.4999883,70.4999818 L74.4999851,70.4999834 L74.4999851,68.4999834 L72.4999867,68.4999849 L72.4999867,60.4999896 L74.4999867,60.4999896 Z M88.4999758,82.4999724 L88.4999758,84.4999724 L86.4999758,84.4999724 L86.4999758,82.4999724 L88.4999758,82.4999724 Z M68.4999914,80.499974 L68.4999914,82.499974 L66.4999914,82.499974 L66.4999914,80.499974 L68.4999914,80.499974 Z M56.5000008,78.4999756 L56.5000008,80.4999756 L54.5000008,80.4999756 L54.5000008,78.4999756 L56.5000008,78.4999756 Z M70.4999898,50.4999975 L70.4999883,52.4999959 L72.4999883,52.4999959 L72.4999883,54.4999959 L68.4999898,54.4999959 L68.4999914,52.4999975 L66.4999914,52.4999975 L66.4999914,54.4999943 L68.4999914,54.4999943 L68.4999914,56.4999943 L74.4999867,56.4999928 L74.4999867,58.4999928 L72.4999867,58.4999928 L72.4999883,60.4999912 L70.4999883,60.4999912 L70.4999898,64.4999881 L68.4999914,64.4999865 L68.4999914,66.4999865 L64.499993,66.4999865 L64.499993,64.4999865 L60.4999961,64.4999881 L60.4999977,66.4999865 L62.4999961,66.4999849 L62.4999945,68.4999834 L66.499993,68.4999834 L66.499993,72.4999818 L68.4999914,72.4999803 L68.4999914,74.4999803 L66.499993,74.4999787 L66.499993,76.4999787 L68.4999914,76.4999771 L68.4999914,78.4999771 L66.499993,78.4999756 L66.499993,80.4999756 L64.499993,80.4999756 L64.4999945,78.4999771 L62.4999961,78.4999756 L62.4999961,80.4999756 L60.4999961,80.4999756 L60.4999961,76.4999771 L62.4999945,76.4999787 L62.4999945,74.4999787 L58.4999977,74.4999803 L58.4999977,72.4999803 L56.5,72.499 L56.5000008,76.4999787 L54.5000008,76.4999787 L54.5000008,72.4999803 L52.5000023,72.4999818 L52.5000023,70.4999818 L54.5000008,70.4999834 L54.5000008,68.4999834 L52.5000023,68.4999849 L52.5000023,66.4999849 L50.5000039,66.4999865 L50.5000039,64.4999865 L52.5000023,64.4999881 L52.5000023,62.4999881 L56.4999992,62.4999896 L56.4999992,60.4999896 L58.4999977,60.4999912 L58.4999977,58.4999912 L60.4999977,58.4999912 L60.4999961,60.4999896 L62.4999945,60.4999896 L62.4999945,58.4999912 L64.499993,58.4999928 L64.499993,56.4999928 L60.4999961,56.4999943 L60.4999961,54.4999943 L64.499993,54.4999959 L64.499993,52.4999959 L66.499993,52.4999959 L66.4999914,50.4999975 L70.4999898,50.4999975 Z M40.5000133,76.4999771 L40.5000133,78.4999771 L38.5000133,78.4999771 L38.5000133,76.4999771 L40.5000133,76.4999771 Z M78.4999836,72.4999818 L72.4999867,72.4999818 L72.4999883,78.4999771 L78.499982,78.4999771 L78.4999836,72.4999818 Z M76.4999851,74.4999787 L76.4999851,76.4999787 L74.4999851,76.4999787 L74.4999851,74.4999787 L76.4999851,74.4999787 Z M24.5000258,38.5000068 L24.5000242,40.5000053 L28.5000211,40.5000068 L28.5000211,38.5000068 L30.5000211,38.5000068 L30.5000211,42.5000053 L32.5000196,42.5000037 L32.500018,38.5000068 L36.5000164,38.5000068 L36.5000164,40.5000068 L34.500018,40.5000053 L34.500018,42.5000053 L36.5000164,42.5000037 L36.5000149,40.5000053 L38.5000149,40.5000053 L38.5000149,42.5000053 L40.5000117,42.5000037 L40.5000117,40.5000053 L44.5000102,40.5000053 L44.5000102,42.5000053 L42.5000102,42.5000053 L42.5000117,44.5000037 L44.5000102,44.5000022 L44.5000102,48.5000006 L42.5,48.5 L42.5000117,50.499999 L40.5000133,50.4999975 L40.5000133,52.4999975 L44.5000102,52.4999959 L44.5000086,56.4999928 L46.500007,56.4999943 L46.500007,54.4999943 L50.5000039,54.4999959 L50.5000039,52.4999959 L54.5000023,52.4999959 L54.5000023,54.4999959 L52.5000039,54.4999943 L52.5000039,56.4999943 L48.5000055,56.4999943 L48.500007,58.4999928 L44.5000086,58.4999928 L44.5000102,60.4999912 L48.500007,60.4999896 L48.500007,62.4999896 L46.500007,62.4999896 L46.5000086,64.4999881 L48.500007,64.4999865 L48.5000055,66.4999849 L50.5000055,66.4999849 L50.5000055,70.4999834 L48.500007,70.4999818 L48.500007,72.4999818 L46.5000086,72.4999803 L46.5000086,74.4999803 L44.5000102,74.4999787 L44.5000102,76.4999787 L42.5000102,76.4999787 L42.5000102,72.4999803 L40.5000117,72.4999818 L40.5000133,74.4999803 L38.5000133,74.4999803 L38.5000133,72.4999803 L40.5000133,72.4999803 L40.5000117,70.4999818 L44.5000086,70.4999834 L44.5000086,64.4999865 L42.5000102,64.4999881 L42.5000117,66.4999865 L40.5000117,66.4999865 L40.5000117,64.4999865 L42.5000117,64.4999865 L42.5000102,58.4999912 L40.5000117,58.4999928 L40.5000117,56.4999928 L38.5000149,56.4999928 L38.5000149,58.4999928 L36.5000149,58.4999928 L36.5000149,56.4999928 L34.5000164,56.4999943 L34.5000164,54.4999943 L36.5000149,54.4999959 L36.5000149,52.4999959 L38.5000133,52.4999975 L38.5000149,50.499999 L36.5000149,50.499999 L36.5000164,52.4999975 L34.5000164,52.4999975 L34.5000164,50.4999975 L36.5000164,50.4999975 L36.5000164,48.5000006 L34.5000164,48.5000006 L34.5000164,46.5000006 L36.5000164,46.5000006 L36.5000149,48.499999 L38.5,48.499 L38.5000133,46.5000006 L40.5000117,46.5000022 L40.5000133,44.5000037 L34.500018,44.5000022 L34.500018,46.5000022 L32.500018,46.5000022 L32.5000196,50.499999 L30.5000211,50.4999975 L30.5000211,52.4999975 L24.5000242,52.4999975 L24.5000242,50.4999975 L28.5000211,50.499999 L28.5,48.5 L26.5000227,48.5000006 L26.5000227,44.5000022 L28.5000211,44.5000037 L28.5000211,42.5000037 L22.5000258,42.5000053 L22.5000258,38.5000068 L24.5000258,38.5000068 Z M64.499993,72.4999803 L62.4999961,72.4999803 L62.4999961,74.4999803 L64.4999945,74.4999787 L64.499993,72.4999803 Z M50.5000055,72.4999803 L50.5000055,74.4999803 L48.5000055,74.4999803 L48.5000055,72.4999803 L50.5000055,72.4999803 Z M88.4999758,70.4999818 L88.4999758,74.4999787 L86.4999758,74.4999787 L86.4999758,70.4999818 L88.4999758,70.4999818 Z M60.4999961,70.4999818 L58.4999992,70.4999818 L58.4999992,72.4999818 L60.4999961,72.4999818 L60.4999961,70.4999818 Z M28.5000227,54.4999943 L28.5000227,58.4999928 L26.5000242,58.4999912 L26.5000242,60.4999912 L24.5000258,60.4999896 L24.5000258,62.4999896 L28.5000211,62.4999896 L28.5000211,60.4999896 L30.5000211,60.4999896 L30.5000196,62.4999881 L32.5000196,62.4999881 L32.5000196,64.4999881 L30.5000211,64.4999865 L30.5000196,66.4999849 L32.5000196,66.4999849 L32.500018,68.4999834 L34.500018,68.4999834 L34.500018,70.4999834 L36.5000164,70.4999818 L36.5000164,72.4999818 L26.5000227,72.4999818 L26.5000227,70.4999818 L24.5000258,70.4999818 L24.5000258,72.4999818 L22.5000258,72.4999818 L22.5000258,70.4999818 L24.5000242,70.4999834 L24.5000242,68.4999834 L22.5000258,68.4999834 L22.5000258,66.4999204 L26.5000227,66.4999865 L26.5000227,64.4999865 L22.5000258,64.4999865 L22.5000258,58.4999912 L24.5000242,58.4999928 L24.5000242,54.4999943 L28.5000227,54.4999943 Z M38.5000149,60.4999896 L38.5000133,66.4999849 L40.5000133,66.4999849 L40.5000133,70.4999834 L38.5000133,70.4999834 L38.5000133,68.4999834 L34.5000164,68.4999849 L34.5000164,66.4999849 L36.5000149,66.4999865 L36.5000149,64.4999865 L34.500018,64.4999865 L34.500018,66.4999865 L32.500018,66.4999865 L32.500018,64.4999865 L34.5000164,64.4999881 L34.5000164,62.4999881 L36.5000149,62.4999896 L36.5000149,60.4999896 L38.5000149,60.4999896 Z M30.5000211,68.4999849 L26.5000242,68.4999834 L26.5000242,70.4999834 L30.5000196,70.4999834 L30.5000211,68.4999849 Z M82.4999804,68.4999834 L82.4999804,70.4999834 L80.4999804,70.4999834 L80.4999804,68.4999834 L82.4999804,68.4999834 Z M58.4999977,66.4999849 L54.5000023,66.4999849 L54.5000023,68.4999849 L56.5000008,68.4999834 L56.5000008,70.4999834 L58.4999977,70.4999834 L58.4999977,66.4999849 Z M80.499982,66.4999849 L80.499982,68.4999849 L78.499982,68.4999849 L78.499982,66.4999849 L80.499982,66.4999849 Z M86.4999773,60.4999896 L86.4999773,64.4999881 L88.4999758,64.4999865 L88.4999758,68.4999834 L86.4999758,68.4999834 L86.4999758,66.4999204 L84.4999789,66.4999849 L84.4999789,68.4999849 L82.4999789,68.4999849 L82.4999789,66.4999849 L84.4999773,66.4999865 L84.4999773,60.4999896 L86.4999773,60.4999896 Z M50.5000055,62.4999881 L50.5000055,64.4999881 L48.5000055,64.4999881 L48.5000055,62.4999881 L50.5000055,62.4999881 Z M34.500018,60.4999896 L34.500018,62.4999896 L32.500018,62.4999896 L32.500018,60.4999896 L34.500018,60.4999896 Z M78.4999836,60.4999896 L78.4999836,62.4999896 L76.4999836,62.4999896 L76.4999836,60.4999896 L78.4999836,60.4999896 Z M68.4999898,60.4999896 L66.499993,60.4999896 L66.4999914,62.4999881 L68.4999898,62.4999896 L68.4999898,60.4999896 Z M84.4999789,58.4999912 L84.4999789,60.4999912 L82.4999789,60.4999912 L82.4999789,58.4999912 L84.4999789,58.4999912 Z M70.4999883,58.4999912 L68.4999898,58.4999928 L68.4999914,60.4999912 L70.4999898,60.4999896 L70.4999883,58.4999912 Z M88.4999758,58.4999912 L88.4999758,60.4999912 L86.4999758,60.4999912 L86.4999758,58.4999912 L88.4999758,58.4999912 Z M36.5000164,58.4999912 L36.5000164,60.4999912 L34.5000164,60.4999912 L34.5000164,58.4999912 L36.5000164,58.4999912 Z M32.5000196,56.4999928 L32.5000196,60.4999912 L30.5000196,60.4999912 L30.5000196,56.4999928 L32.5000196,56.4999928 Z M52.5000039,58.4999912 L52.5000039,60.4999912 L50.5000039,60.4999912 L50.5000039,58.4999912 L52.5000039,58.4999912 Z M86.4999773,46.5000006 L86.499,48.499 L88.4999758,48.499999 L88.4999758,50.499999 L86.4999773,50.4999975 L86.4999773,58.4999928 L84.4999773,58.4999928 L84.4999773,46.5000006 L86.4999773,46.5000006 Z M82.4999804,54.4999943 L82.4999804,58.4999928 L80.4999804,58.4999928 L80.4999804,56.4999928 L78.499982,56.4999943 L78.4999836,58.4999928 L76.4999836,58.4999928 L76.4999836,56.4999928 L78.4999836,56.4999928 L78.499982,54.4999943 L82.4999804,54.4999943 Z M60.4999977,52.4999959 L60.4999977,54.4999959 L58.4999992,54.4999943 L58.4999992,56.4999943 L56.5000008,56.4999928 L56.5000008,58.4999928 L54.5000008,58.4999928 L54.5000008,56.4999928 L56.4999992,56.4999943 L56.4999992,52.4999959 L60.4999977,52.4999959 Z M72.4999883,34.50001 L72.4999867,38.5000068 L74.4999867,38.5000068 L74.4999851,40.5000053 L76.4999851,40.5000053 L76.4999836,38.5000068 L78.4999836,38.5000068 L78.4999836,42.5000053 L80.499982,42.5000037 L80.4999804,44.5000022 L82.4999804,44.5000022 L82.4999804,50.499999 L80.499982,50.4999975 L80.499982,52.4999975 L76.4999851,52.4999959 L76.4999851,56.4999943 L74.4999851,56.4999943 L74.4999851,52.4999959 L72.4999867,52.4999975 L72.4999867,50.4999975 L74.4999867,50.4999975 L74.499,48.5 L72.4999867,48.5000006 L72.4999867,46.5000006 L76.4999851,46.5000006 L76.4999836,48.499999 L80.499982,48.499999 L80.499982,46.5000022 L78.499982,46.5000022 L78.499982,44.5000022 L76.4999836,44.5000037 L76.4999851,42.5000053 L72.4999867,42.5000053 L72.4999883,40.5000068 L68.4999914,40.5000053 L68.4999914,42.5000053 L66.4999914,42.5000053 L66.4999914,40.5000053 L68.4999898,40.5000068 L68.4999898,36.5000084 L70.4999898,36.5000084 L70.4999883,34.50001 L72.4999883,34.50001 Z M32.5000196,52.4999959 L32.5000196,54.4999959 L30.5000196,54.4999959 L30.5000196,52.4999959 L32.5000196,52.4999959 Z M64.4999945,50.4999975 L64.4999945,52.4999975 L62.4999945,52.4999975 L62.4999945,50.4999975 L64.4999945,50.4999975 Z M50.5000055,48.499999 L50.5000055,52.4999975 L48.5000055,52.4999975 L48.5000055,48.499999 L50.5000055,48.499999 Z M56.5000008,48.499999 L56.5000008,50.499999 L52.5000023,50.499999 L52.5000023,48.499999 L56.5000008,48.499999 Z M70.4999898,44.5000022 L70.4999898,46.5000022 L68.4999898,46.5000022 L68.4999914,48.5000006 L66.499,48.5 L66.499993,50.499999 L64.499993,50.499999 L64.499,48.5 L62.4999945,48.5000006 L62.4999945,44.5000022 L70.4999898,44.5000022 Z M24.5000258,46.5000006 L24.5000258,48.5000006 L22.5000258,48.5000006 L22.5000258,46.5000006 L24.5000258,46.5000006 Z M56.5000008,40.5000053 L56.5,42.5 L58.4999992,42.5000037 L58.4999992,46.5000022 L56.4999992,46.5000022 L56.4999992,44.5000022 L54.5000008,44.5000037 L54.5000023,46.5000022 L50.5000039,46.5000022 L50.5000039,44.5000022 L54.5000023,44.5000022 L54.5000008,40.5000053 L56.5000008,40.5000053 Z M88.4999758,40.5000053 L88.4999758,46.5000006 L86.4999758,46.5000006 L86.4999758,40.5000053 L88.4999758,40.5000053 Z M32.5000196,44.5000037 L30.5000211,44.5000022 L30.5000211,46.5000022 L32.5000196,46.5000006 L32.5000196,44.5000037 Z M46.5000086,42.5000037 L46.5000086,44.5000037 L44.5000086,44.5000037 L44.5000086,42.5000037 L46.5000086,42.5000037 Z M84.4999789,42.5000037 L84.4999789,44.5000037 L82.4999789,44.5000037 L82.4999789,42.5000037 L84.4999789,42.5000037 Z M62.4999961,42.5000037 L62.4999961,44.5000037 L60.4999961,44.5000037 L60.4999961,42.5000037 L62.4999961,42.5000037 Z M54.5000023,22.5000194 L54.5000008,24.5000178 L58.4999992,24.5000178 L58.4999992,32.5000131 L54.5000008,32.5000131 L54.5000008,30.5000131 L52.5000023,30.5000147 L52.5000023,28.5000147 L50.5000055,28.5000147 L50.5000039,32.5000115 L52.5000039,32.5000115 L52.5000039,36.50001 L50.5000039,36.50001 L50.5000039,34.50001 L48.5000055,34.5000115 L48.5000055,38.5000068 L54.5000023,38.5000068 L54.5000023,40.5000068 L48.500007,40.5000053 L48.500007,42.5000053 L46.500007,42.5000053 L46.500007,34.50001 L48.500007,34.50001 L48.5000055,30.5000131 L42.5000102,30.5000147 L42.5000117,34.5000115 L40.5000133,34.50001 L40.5000133,36.50001 L38.5000133,36.50001 L38.5000133,32.5000115 L40.5000117,32.5000131 L40.5000117,30.5000131 L42.5000117,30.5000131 L42.5000102,28.5000147 L50.5000039,28.5000162 L50.5000039,26.5000162 L52.5000023,26.5000178 L52.5000023,22.5000194 L54.5000023,22.5000194 Z M64.4999945,40.5000053 L64.4999945,42.5000053 L62.4999945,42.5000053 L62.4999945,40.5000053 L64.4999945,40.5000053 Z M60.4999977,32.5000115 L60.4999961,36.5000084 L62.4999961,36.5000084 L62.4999945,32.5000115 L66.499993,32.5000115 L66.499993,34.5000115 L64.499993,34.5000115 L64.499993,36.5000084 L66.499993,36.5000084 L66.499993,40.5000068 L64.499993,40.5000068 L64.499993,38.5000068 L62.4999945,38.5000084 L62.4999961,40.5000068 L58.4999977,40.5000068 L58.4999977,38.5000068 L56.4999992,38.5000084 L56.4999992,36.5000084 L54.5000008,36.50001 L54.5000008,34.50001 L56.5000008,34.50001 L56.5000008,36.50001 L58.4999992,36.5000084 L58.4999977,32.5000115 L60.4999977,32.5000115 Z M40.5000133,38.5000068 L40.5000133,40.5000068 L38.5000133,40.5000068 L38.5000133,38.5000068 L40.5000133,38.5000068 Z M68.4999914,34.50001 L68.4999914,36.50001 L66.4999914,36.50001 L66.4999914,34.50001 L68.4999914,34.50001 Z M44.5000102,34.50001 L44.5000102,36.50001 L42.5000102,36.50001 L42.5000102,34.50001 L44.5000102,34.50001 Z M36.5000149,22.5 L36.5000149,36.4999891 L22.5000258,36.4999891 L22.5000258,22.5 L36.5000149,22.5 Z M88.5,22.5 L88.5,36.4999891 L74.5000109,36.4999891 L74.5000109,22.5 L88.5,22.5 Z M46.5000086,32.5000115 L46.5000086,34.5000115 L44.5000086,34.5000115 L44.5000086,32.5000115 L46.5000086,32.5000115 Z M34.399952,24.5999984 L24.6000242,24.5999984 L24.6000242,34.3999907 L34.399952,34.3999907 L34.399952,24.5999984 Z M86.3999371,24.5999984 L76.5999448,24.5999984 L76.5999448,34.3999907 L86.3999371,34.3999907 L86.3999371,24.5999984 Z M32.5000227,26.5000162 L32.5000227,32.5000162 L26.5000227,32.5000162 L26.5000227,26.5000162 L32.5000227,26.5000162 Z M72.4999883,28.5000147 L72.4999883,32.5000131 L66.4999914,32.5000131 L66.4999914,30.5000131 L70.4999883,30.5000147 L70.4999883,28.5000147 L72.4999883,28.5000147 Z M84.499982,26.5000162 L84.499982,32.5000162 L78.499982,32.5000162 L78.499982,26.5000162 L84.499982,26.5000162 Z M62.4999961,30.5000131 L62.4999961,32.5000131 L60.4999961,32.5000131 L60.4999961,30.5000131 L62.4999961,30.5000131 Z M56.4999992,28.5000147 L54.5000023,28.5000147 L54.5000023,30.5000147 L56.4999992,30.5000147 L56.4999992,28.5000147 Z M54.5000008,26.5000162 L52.5000039,26.5000162 L52.5000039,28.5000162 L54.5000008,28.5000162 L54.5000008,26.5000162 Z M70.4999898,22.5000194 L70.4999898,26.5000178 L68.4999914,26.5000162 L68.4999914,28.5000162 L66.4999914,28.5000162 L66.4999914,26.5000162 L64.4999945,26.5000162 L64.4999945,28.5000162 L60.4999961,28.5000162 L60.4999961,26.5000162 L62.4999945,26.5000178 L62.4999945,24.5000178 L64.499993,24.5000194 L64.499993,22.5000194 L70.4999898,22.5000194 Z M42.5000117,24.5000178 L42.5000117,28.5000162 L40.5000117,28.5000162 L40.5000117,24.5000178 L42.5000117,24.5000178 Z M44.5000731,22.5000194 L44.5000731,24.5000194 L42.5000102,24.5000194 L42.5000102,22.5000194 L44.5000731,22.5000194 Z M62.4999961,22.5000194 L62.4999961,24.5000194 L58.4999977,24.5000194 L58.4999977,22.5000194 L62.4999961,22.5000194 Z" id="Combined-Shape" fill="#000000"></path>
            </g>
        </g>
    </g>
</svg>